<?xml version="1.0" encoding="UTF-8"?>
<svg xmlns="http://www.w3.org/2000/svg"
     width="900"
     height="1000"
     viewBox="0 0 900 1000">

<rect width="900" height="1000" fill="#E6C178"/>

<g stroke="#6B3F1D" stroke-width="3" fill="none">

  <!-- 外框 -->
  <rect x="50" y="50" width="800" height="900"/>

  <!-- 纵线 -->
  <line x1="50" y1="50" x2="50" y2="950"/>
  <line x1="150" y1="50" x2="150" y2="950"/>
  <line x1="250" y1="50" x2="250" y2="950"/>
  <line x1="350" y1="50" x2="350" y2="950"/>
  <line x1="450" y1="50" x2="450" y2="950"/>
  <line x1="550" y1="50" x2="550" y2="950"/>
  <line x1="650" y1="50" x2="650" y2="950"/>
  <line x1="750" y1="50" x2="750" y2="950"/>
  <line x1="850" y1="50" x2="850" y2="950"/>

  <!-- 横线 -->
  <line x1="50" y1="50" x2="850" y2="50"/>
  <line x1="50" y1="150" x2="850" y2="150"/>
  <line x1="50" y1="250" x2="850" y2="250"/>
  <line x1="50" y1="350" x2="850" y2="350"/>
  <line x1="50" y1="450" x2="850" y2="450"/>

  <line x1="50" y1="550" x2="850" y2="550"/>

  <line x1="50" y1="650" x2="850" y2="650"/>
  <line x1="50" y1="750" x2="850" y2="750"/>
  <line x1="50" y1="850" x2="850" y2="850"/>
  <line x1="50" y1="950" x2="850" y2="950"/>

  <!-- 河界断开中间纵线 -->
  <rect x="51" y="451" width="798" height="98"
        fill="#E6C178" stroke="none"/>

  <!-- 上半纵线 -->
  <line x1="150" y1="50" x2="150" y2="450"/>
  <line x1="250" y1="50" x2="250" y2="450"/>
  <line x1="350" y1="50" x2="350" y2="450"/>
  <line x1="450" y1="50" x2="450" y2="450"/>
  <line x1="550" y1="50" x2="550" y2="450"/>
  <line x1="650" y1="50" x2="650" y2="450"/>
  <line x1="750" y1="50" x2="750" y2="450"/>

  <!-- 下半纵线 -->
  <line x1="150" y1="550" x2="150" y2="950"/>
  <line x1="250" y1="550" x2="250" y2="950"/>
  <line x1="350" y1="550" x2="350" y2="950"/>
  <line x1="450" y1="550" x2="450" y2="950"/>
  <line x1="550" y1="550" x2="550" y2="950"/>
  <line x1="650" y1="550" x2="650" y2="950"/>
  <line x1="750" y1="550" x2="750" y2="950"/>

  <!-- 黑方九宫 -->
  <line x1="350" y1="50" x2="550" y2="250"/>
  <line x1="550" y1="50" x2="350" y2="250"/>

  <!-- 红方九宫 -->
  <line x1="350" y1="750" x2="550" y2="950"/>
  <line x1="550" y1="750" x2="350" y2="950"/>

</g>

<!-- 楚河汉界 -->
<text x="250"
      y="515"
      font-size="48"
      fill="#7A2D00"
      font-weight="bold"
      text-anchor="middle">
楚 河
</text>

<text x="650"
      y="515"
      font-size="48"
      fill="#7A2D00"
      font-weight="bold"
      text-anchor="middle">
汉 界
</text>

</svg>
